Coordinates
version=1
nRows=31
nColumns=38
inDegrees=no

Units are S.I. units (second, meters, Newtons, ...)
If the header above contains a line with 'inDegrees', this indicates whether rotational values are in degrees (yes) or radians (no).

endheader
time	pelvis_tilt	pelvis_list	pelvis_rotation	pelvis_tx	pelvis_ty	pelvis_tz	hip_flexion_r	hip_adduction_r	hip_rotation_r	knee_angle_r	ankle_angle_r	subtalar_angle_r	mtp_angle_r	hip_flexion_l	hip_adduction_l	hip_rotation_l	knee_angle_l	ankle_angle_l	subtalar_angle_l	mtp_angle_l	lumbar_extension	lumbar_bending	lumbar_rotation	arm_flex_r	arm_add_r	arm_rot_r	elbow_flex_r	pro_sup_r	wrist_flex_r	wrist_dev_r	arm_flex_l	arm_add_l	arm_rot_l	elbow_flex_l	pro_sup_l	wrist_flex_l	wrist_dev_l
1.14	3.06827	1.44376	1.67356	0.816477	0.237616	0.999744	0.635698	-0.050546	-0.146423	0.43852	-0.177916	0	0	-0.0169393	-0.0246758	-0.25817	0.411872	-0.144421	0	0	0.0886842	0.134181	0.304358	-0.51826	-0.562236	-0.341931	1.71178	0.519067	0	0	0.42159	-0.335893	0.638606	1.05169	0.733516	0	0
1.15	3.06882	1.44571	1.67698	0.815128	0.226955	0.998741	0.629433	-0.0485317	-0.144244	0.450136	-0.178373	0	0	-0.0250494	-0.0286493	-0.256348	0.422467	-0.141933	0	0	0.0890344	0.134946	0.301456	-0.516934	-0.563313	-0.340178	1.70868	0.519396	0	0	0.421964	-0.334568	0.639317	1.04906	0.733632	0	0
1.16	3.0652	1.44809	1.68457	0.813744	0.216145	0.997728	0.622128	-0.0466303	-0.141102	0.467145	-0.180414	0	0	-0.0324493	-0.0324295	-0.253807	0.43555	-0.139615	0	0	0.08876	0.13541	0.298698	-0.516242	-0.564352	-0.338819	1.7065	0.519577	0	0	0.422051	-0.333552	0.639949	1.04716	0.733672	0	0
1.17	3.0586	1.45028	1.6953	0.812294	0.205151	0.996616	0.614451	-0.0449589	-0.138344	0.487124	-0.181879	0	0	-0.0382527	-0.0360764	-0.250372	0.451697	-0.137679	0	0	0.0886296	0.135619	0.296076	-0.516545	-0.564746	-0.338305	1.70558	0.519972	0	0	0.421824	-0.333093	0.640739	1.04609	0.734158	0	0
1.18	3.05282	1.45176	1.70489	0.810749	0.19406	0.995432	0.607934	-0.0435383	-0.135805	0.505864	-0.182371	0	0	-0.0416336	-0.0398641	-0.24599	0.471683	-0.135981	0	0	0.0890741	0.136241	0.294101	-0.51773	-0.565096	-0.338364	1.70564	0.52094	0	0	0.42129	-0.332599	0.641464	1.04506	0.734654	0	0
1.19	3.05455	1.45215	1.70593	0.809077	0.183004	0.994296	0.605001	-0.0425482	-0.133847	0.51832	-0.18555	0	0	-0.0416874	-0.0444543	-0.240974	0.49647	-0.134136	0	0	0.090348	0.138322	0.293222	-0.519371	-0.565608	-0.338989	1.70621	0.522149	0	0	0.420215	-0.33151	0.641643	1.0435	0.73463	0	0
1.2	3.07031	1.45124	1.69159	0.807334	0.172085	0.993338	0.605318	-0.0410444	-0.131385	0.524127	-0.196155	0	0	-0.0376082	-0.0504573	-0.23521	0.526933	-0.132463	0	0	0.0925577	0.142813	0.293562	-0.52145	-0.566326	-0.340377	1.70707	0.523245	0	0	0.41824	-0.329304	0.640543	1.04133	0.734267	0	0
1.21	3.10183	1.45153	1.66006	0.805434	0.16124	0.992882	0.603478	-0.036103	-0.128586	0.528591	-0.214228	0	0	-0.0323448	-0.0587968	-0.22943	0.562444	-0.132361	0	0	0.0926643	0.149863	0.29503	-0.522979	-0.567512	-0.341971	1.70783	0.524026	0	0	0.415873	-0.326335	0.638312	1.03899	0.734044	0	0
1.22	-3.13804	1.45329	1.61544	0.803272	0.150478	0.993013	0.599228	-0.0282325	-0.124605	0.537783	-0.235868	0	0	-0.0262463	-0.0692903	-0.22401	0.602829	-0.134715	0	0	0.0901044	0.158266	0.297462	-0.523275	-0.568923	-0.343215	1.70799	0.524813	0	0	0.413681	-0.323255	0.635541	1.0366	0.734758	0	0
1.23	-3.09261	1.45642	1.56774	0.80082	0.139838	0.993657	0.595281	-0.0200497	-0.118053	0.554819	-0.252187	0	0	-0.0193788	-0.0803867	-0.217973	0.646848	-0.140137	0	0	0.0849962	0.166038	0.30032	-0.521661	-0.570452	-0.34303	1.707	0.526095	0	0	0.412216	-0.32106	0.633236	1.03428	0.7363	0	0
1.24	-3.0506	1.46068	1.52295	0.798107	0.129263	0.994573	0.592561	-0.0120472	-0.105765	0.577836	-0.265196	0	0	-0.0109732	-0.0915207	-0.211663	0.694867	-0.149355	0	0	0.0778263	0.17229	0.30331	-0.518642	-0.571826	-0.341682	1.70577	0.527558	0	0	0.411318	-0.320236	0.631334	1.03288	0.737481	0	0
1.25	-3.01448	1.46551	1.48459	0.795262	0.118697	0.995582	0.588492	-0.00321418	-0.0854264	0.600636	-0.275923	0	0	-0.00024487	-0.102241	-0.204249	0.745973	-0.163538	0	0	0.0696825	0.176643	0.305492	-0.515048	-0.572727	-0.339698	1.70505	0.529077	0	0	0.410909	-0.321235	0.630428	1.03297	0.736792	0	0
1.26	-2.97778	1.47184	1.44748	0.79238	0.108073	0.996734	0.579518	0.00644042	-0.0652158	0.617956	-0.28144	0	0	0.0114328	-0.112906	-0.194948	0.798188	-0.18117	0	0	0.060197	0.179482	0.306089	-0.511474	-0.572732	-0.337604	1.70474	0.529975	0	0	0.4118	-0.323688	0.631517	1.03359	0.735071	0	0
1.27	-2.93053	1.47988	1.40161	0.789511	0.0973664	0.998003	0.565703	0.0152431	-0.0564762	0.628836	-0.281692	0	0	0.0231432	-0.124035	-0.184669	0.850357	-0.202075	0	0	0.0490088	0.181647	0.305565	-0.508761	-0.572407	-0.335796	1.70539	0.530331	0	0	0.414268	-0.326945	0.634243	1.034	0.736567	0	0
1.28	-2.86664	1.48766	1.34007	0.786771	0.0866743	0.999229	0.549472	0.0226348	-0.0613834	0.633071	-0.279971	0	0	0.0360419	-0.134946	-0.172652	0.900958	-0.223824	0	0	0.0382028	0.184294	0.304634	-0.50735	-0.572323	-0.334621	1.70691	0.530042	0	0	0.417344	-0.329906	0.637562	1.03363	0.741203	0	0
1.29	-2.78521	1.49292	1.26118	0.784279	0.0762292	1.00031	0.533308	0.029736	-0.0732201	0.632588	-0.277082	0	0	0.0517201	-0.14482	-0.156599	0.948832	-0.249411	0	0	0.0292829	0.189405	0.304344	-0.508302	-0.572746	-0.335743	1.71069	0.527967	0	0	0.419521	-0.332048	0.642393	1.03507	0.733541	0	0
1.3	-2.71669	1.49328	1.19449	0.781918	0.0660859	1.00096	0.52187	0.0371334	-0.0835034	0.632732	-0.272026	0	0	0.0718899	-0.151892	-0.135239	0.992839	-0.263524	0	0	0.0260651	0.194891	0.30527	-0.510753	-0.573418	-0.33742	1.71429	0.524809	0	0	0.422116	-0.333302	0.648486	1.03513	0.723437	0	0
1.31	-2.67428	1.49068	1.15286	0.7796	0.0561967	1.00127	0.514826	0.04452	-0.0896042	0.636658	-0.264354	0	0	0.0943206	-0.156338	-0.111403	1.03326	-0.259582	0	0	0.0264875	0.19938	0.307263	-0.513528	-0.574511	-0.338802	1.71744	0.521895	0	0	0.424357	-0.333976	0.653221	1.03443	0.717854	0	0
1.32	-2.66378	1.48587	1.14219	0.777332	0.0464845	1.0013	0.512057	0.0511239	-0.0916748	0.644154	-0.253086	0	0	0.11867	-0.158023	-0.0873482	1.07072	-0.239033	0	0	0.0303563	0.202348	0.310375	-0.516654	-0.575453	-0.340098	1.71994	0.517873	0	0	0.426142	-0.334332	0.657438	1.03348	0.713862	0	0
1.33	-2.66607	1.48214	1.14313	0.775145	0.0369088	1.00154	0.508437	0.05685	-0.0902682	0.650918	-0.242548	0	0	0.141165	-0.157332	-0.0674341	1.10323	-0.215439	0	0	0.0332909	0.203747	0.314346	-0.518962	-0.576946	-0.340052	1.72129	0.514422	0	0	0.4271	-0.334193	0.65959	1.03272	0.71173	0	0
1.34	-2.66947	1.48143	1.14423	0.773062	0.0274095	1.00234	0.501169	0.0616347	-0.0868795	0.65475	-0.234688	0	0	0.159717	-0.154554	-0.0534609	1.12925	-0.196415	0	0	0.0327095	0.203714	0.318749	-0.519355	-0.578831	-0.338899	1.72126	0.512093	0	0	0.427333	-0.33344	0.659492	1.03193	0.710174	0	0
1.35	-2.67499	1.48347	1.14688	0.770987	0.0178814	1.00366	0.490743	0.0655402	-0.0821806	0.656451	-0.228038	0	0	0.175073	-0.150204	-0.0449069	1.14996	-0.180369	0	0	0.0293676	0.201988	0.323445	-0.518074	-0.580427	-0.336833	1.7197	0.510544	0	0	0.42732	-0.332493	0.658354	1.03063	0.709742	0	0
1.36	-2.68483	1.48792	1.15358	0.768857	0.00827627	1.00532	0.4775	0.0685107	-0.0769877	0.656578	-0.221798	0	0	0.187868	-0.145009	-0.0407375	1.16687	-0.16641	0	0	0.0238719	0.198328	0.328332	-0.515657	-0.581069	-0.334473	1.71711	0.510133	0	0	0.427258	-0.331932	0.656874	1.02961	0.710793	0	0
1.37	-2.70332	1.49313	1.1688	0.766713	-0.00141089	1.00703	0.462966	0.0705726	-0.0718276	0.655911	-0.215945	0	0	0.199646	-0.139583	-0.0393325	1.18045	-0.152224	0	0	0.0180914	0.193431	0.333408	-0.513116	-0.580612	-0.332368	1.71425	0.510831	0	0	0.427034	-0.331769	0.655382	1.02902	0.712397	0	0
1.38	-2.72674	1.4979	1.18903	0.764628	-0.0111095	1.00867	0.447839	0.0719475	-0.0667137	0.654695	-0.208967	0	0	0.211447	-0.134492	-0.0386153	1.19101	-0.135428	0	0	0.012968	0.188512	0.338525	-0.511093	-0.579439	-0.331071	1.71178	0.51249	0	0	0.426377	-0.331663	0.653572	1.02902	0.71418	0	0
1.39	-2.74855	1.50141	1.20806	0.762635	-0.0207797	1.01016	0.432494	0.0730539	-0.0623891	0.652192	-0.201675	0	0	0.224215	-0.130395	-0.0374592	1.19895	-0.117736	0	0	0.00907384	0.184552	0.343383	-0.509852	-0.577938	-0.330843	1.70998	0.51486	0	0	0.425298	-0.331534	0.651591	1.02938	0.7164	0	0
1.4	-2.76299	1.5037	1.22037	0.760804	-0.030363	1.01153	0.416981	0.0742211	-0.0596253	0.647904	-0.194641	0	0	0.238236	-0.127785	-0.0365464	1.20427	-0.101284	0	0	0.00616315	0.181949	0.347715	-0.509262	-0.576429	-0.331539	1.70879	0.517259	0	0	0.423809	-0.331026	0.649164	1.02994	0.718565	0	0
1.41	-2.76942	1.50485	1.22542	0.759151	-0.0398026	1.0128	0.401912	0.0756704	-0.0591334	0.642287	-0.189037	0	0	0.253636	-0.126443	-0.0359238	1.20676	-0.0885867	0	0	0.00423673	0.180581	0.351164	-0.508923	-0.575385	-0.332481	1.7081	0.519353	0	0	0.422228	-0.330363	0.646703	1.03049	0.720407	0	0
1.42	-2.76946	1.5051	1.22451	0.757596	-0.0490732	1.01396	0.387517	0.0776013	-0.0612305	0.635108	-0.183557	0	0	0.27022	-0.126084	-0.035853	1.20625	-0.07693	0	0	0.00287959	0.180019	0.354157	-0.508774	-0.574677	-0.333494	1.7079	0.521804	0	0	0.420716	-0.329638	0.644129	1.03117	0.722682	0	0
1.43	-2.77293	1.50471	1.22703	0.756073	-0.0581571	1.01499	0.374428	0.0793201	-0.0657403	0.62766	-0.178995	0	0	0.287411	-0.125817	-0.036374	1.20273	-0.0666215	0	0	0.00194434	0.17934	0.356978	-0.508097	-0.574274	-0.334125	1.70769	0.524326	0	0	0.419421	-0.328967	0.641318	1.03185	0.725354	0	0
1.44	-2.78703	1.50398	1.23986	0.754588	-0.0670556	1.01592	0.362493	0.0801078	-0.0718266	0.620298	-0.174982	0	0	0.304852	-0.12512	-0.0380346	1.19607	-0.0573972	0	0	0.00131521	0.177994	0.359717	-0.506565	-0.573924	-0.334569	1.70735	0.5266	0	0	0.418344	-0.328456	0.638102	1.0324	0.728967	0	0
